<svg xmlns="http://www.w3.org/2000/svg" width="42" height="42" viewBox="0 0 42 42" focusable="false">
    <g fill="none" fill-rule="evenodd" transform="translate(1 1)">
        <g fill="#FFF" fill-rule="nonzero" transform="translate(12 11.5)">
            <path d="M8.5 1.531c2.27 0 2.54.01 3.435.048.829.038 1.278.177 1.579.294.397.156.68.339.977.636.298.297.48.58.636.978.118.3.256.75.294 1.58.041.895.048 1.164.048 3.435 0 2.27-.01 2.54-.048 3.435-.038.83-.176 1.279-.294 1.58-.155.397-.338.68-.636.977-.297.298-.58.48-.977.636-.301.118-.75.256-1.58.294-.894.042-1.164.048-3.434.048-2.27 0-2.54-.01-3.435-.048-.829-.038-1.278-.176-1.579-.294a2.648 2.648 0 0 1-.977-.636 2.648 2.648 0 0 1-.636-.978c-.118-.3-.256-.75-.294-1.579-.041-.895-.048-1.165-.048-3.435s.01-2.54.048-3.436c.038-.829.176-1.278.294-1.579.155-.397.338-.68.636-.978.297-.297.58-.48.977-.636.301-.117.75-.256 1.58-.294.898-.041 1.164-.048 3.434-.048zM8.5 0C6.192 0 5.902.01 4.996.052c-.905.041-1.523.186-2.062.394a4.168 4.168 0 0 0-1.507.981c-.473.47-.764.947-.981 1.504C.235 3.47.093 4.088.052 4.994.01 5.899 0 6.19 0 8.498c0 2.309.01 2.6.052 3.505.041.905.186 1.524.394 2.063.217.56.508 1.033.981 1.507.473.473.947.763 1.507.981.539.211 1.157.353 2.062.394.906.042 1.196.052 3.504.052s2.598-.01 3.504-.052c.905-.041 1.523-.186 2.062-.394a4.168 4.168 0 0 0 1.507-.981c.473-.474.764-.947.981-1.507.211-.54.353-1.158.394-2.063.042-.906.052-1.196.052-3.505 0-2.308-.01-2.599-.052-3.504-.041-.906-.186-1.524-.394-2.063a4.192 4.192 0 0 0-.978-1.504A4.168 4.168 0 0 0 14.07.446c-.54-.211-1.158-.353-2.063-.394C11.098.01 10.808 0 8.5 0z"></path>
            <path d="M8.5 4a4.5 4.5 0 1 0 0 9 4.5 4.5 0 0 0 0-9zm0 7.422a2.921 2.921 0 1 1-.001-5.842 2.921 2.921 0 0 1 .001 5.842z"></path>
            <circle cx="13.5" cy="4.5" r="1.5"></circle>
        </g>
    </g>
</svg>