<svg xmlns="http://www.w3.org/2000/svg" width="42" height="42" viewBox="0 0 42 42" focusable="false">
    <g fill="none" fill-rule="evenodd" transform="translate(1 1)">
        <g fill="#FFF" fill-rule="nonzero" transform="translate(13 13)">
            <path d="M3.733 13h-2.8V3.714h2.8V13zM14 13h-2.8V8.04c0-1.293-.463-1.936-1.38-1.936-.727 0-1.189.36-1.42 1.081V13H5.6s.037-8.357 0-9.286h2.21l.17 1.857h.059c.574-.928 1.491-1.558 2.75-1.558.956 0 1.73.265 2.32.93.595.666.891 1.559.891 2.813V13z"></path>
            <ellipse cx="2.333" cy="1.393" rx="1.447" ry="1.393"></ellipse>
        </g>
    </g>
</svg>