<svg xmlns="http://www.w3.org/2000/svg" width="20" height="20" viewBox="0 0 20 20">
    <path fill="#094391" d="M19.958 9.474a9.92 9.92 0 0 0-.924-3.685 10.154 10.154 0 0 0-.568-1.052A9.932 9.932 0 0 0 10 0C6.429 0 3.277 1.895 1.513 4.737c-.21.337-.4.695-.568 1.052a10.343 10.343 0 0 0-.924 3.685C.021 9.642 0 9.832 0 10c0 .168 0 .358.021.526.084 1.306.4 2.548.924 3.685.168.357.358.715.568 1.052C3.277 18.105 6.429 20 10 20c3.571 0 6.723-1.895 8.487-4.737.21-.337.4-.695.568-1.052.525-1.137.84-2.38.924-3.685 0-.168.021-.358.021-.526 0-.168-.021-.358-.042-.526zm-17.164 5.79h2.731c.42 1.304.988 2.42 1.68 3.22a8.758 8.758 0 0 1-4.41-3.22zM17.206 4.736h-2.731c-.42-1.305-.988-2.421-1.68-3.221a8.758 8.758 0 0 1 4.41 3.22zm-3.004 4.737h-3.677V5.789h3.151c.295 1.116.484 2.358.526 3.685zm-.505 4.737h-3.15v-3.685h3.655a17.925 17.925 0 0 1-.505 3.685zM5.82 10.526h3.656v3.685H6.324a15.446 15.446 0 0 1-.505-3.685zm.484-4.737h3.15v3.685H5.82c.021-1.327.21-2.569.484-3.685zm7.058-1.052h-2.836v-3.6c1.156.316 2.164 1.684 2.836 3.6zm-3.886-3.6v3.6H6.639c.672-1.916 1.68-3.284 2.836-3.6zM6.639 15.263h2.836v3.6c-1.156-.316-2.164-1.684-2.836-3.6zm3.886 3.6v-3.6h2.836c-.672 1.916-1.68 3.284-2.836 3.6zM7.185 1.516c-.693.82-1.26 1.916-1.68 3.22H2.772a8.939 8.939 0 0 1 4.412-3.22zM5.21 5.789a19.602 19.602 0 0 0-.462 3.685H1.092a9.095 9.095 0 0 1 1.03-3.685H5.21zm-.462 4.737c.042 1.327.189 2.548.462 3.685H2.122a9.095 9.095 0 0 1-1.03-3.685h3.656zm8.067 7.958c.693-.82 1.26-1.916 1.68-3.22h2.732a8.939 8.939 0 0 1-4.412 3.22zm1.975-4.273a16.66 16.66 0 0 0 .462-3.685h3.656a9.095 9.095 0 0 1-1.03 3.685H14.79zm.462-4.737a19.602 19.602 0 0 0-.462-3.685h3.088a8.776 8.776 0 0 1 1.03 3.685h-3.656z"></path>
</svg>