<svg xmlns="http://www.w3.org/2000/svg" width="20" height="16" viewBox="0 0 20 16" focusable="false">
    <g fill="#fff"><path d="M20 1.894a8.307 8.307 0 0 1-2.356.636A4.069 4.069 0 0 0 19.448.295a8.289 8.289 0 0 1-2.606.98A4.127 4.127 0 0 0 13.846 0c-2.265 0-4.102 1.808-4.102 4.04 0 .316.036.624.106.92A11.712 11.712 0 0 1 1.392.74a3.976 3.976 0 0 0-.555 2.03c0 1.401.724 2.637 1.825 3.362a4.134 4.134 0 0 1-1.858-.505v.05c0 1.957 1.414 3.59 3.29 3.96a4.149 4.149 0 0 1-1.851.07c.521 1.605 2.036 2.772 3.832 2.805a8.32 8.32 0 0 1-5.096 1.729c-.33 0-.657-.02-.979-.056A11.749 11.749 0 0 0 6.29 16c7.547 0 11.674-6.155 11.674-11.493 0-.175-.003-.35-.011-.522A8.261 8.261 0 0 0 20 1.895" fill-rule="evenodd" fill="#fff"></path></g>
</svg>