<svg xmlns="http://www.w3.org/2000/svg" width="42" height="42" viewBox="0 0 42 42" focusable="false">
    <g fill="none" fill-rule="evenodd" transform="translate(1 1)">
        <path fill="#FFF" fill-rule="nonzero" d="M28.336 16.404a2.39 2.39 0 0 0-2.166-2.176A69.554 69.554 0 0 0 20.425 14c-2.935 0-5.15.12-6.582.234a2.39 2.39 0 0 0-2.18 2.179c-.087.93-.163 2.159-.163 3.623 0 1.429.075 2.635.163 3.554a2.389 2.389 0 0 0 2.179 2.176c1.432.113 3.648.234 6.583.234 2.437 0 4.412-.116 5.745-.228a2.39 2.39 0 0 0 2.166-2.176c.088-.926.164-2.146.164-3.596 0-1.45-.076-2.67-.164-3.596zM18.11 22.52v-5.038L23.038 20l-4.928 2.519z"></path>
    </g>
</svg>